<svg xmlns="http://www.w3.org/2000/svg" xmlns:xlink="http://www.w3.org/1999/xlink" width="500" zoomAndPan="magnify" viewBox="0 0 375 374.999991" height="500" preserveAspectRatio="xMidYMid meet" version="1.0"><defs><g/></defs><g fill="#32620e" fill-opacity="1"><g transform="translate(74.334708, 192.172137)"><g><path d="M 9.71875 0 L 9.71875 -15.976562 L 19.335938 -15.976562 C 26.710938 -15.976562 31.648438 -20.25 31.648438 -27.527344 C 31.648438 -35.3125 26.660156 -38.820312 19.335938 -38.820312 L 3.714844 -38.820312 L 3.714844 0 Z M 9.71875 -33.429688 L 18.519531 -33.429688 C 23.097656 -33.429688 25.695312 -31.242188 25.695312 -27.375 C 25.695312 -23.40625 23.152344 -21.21875 18.519531 -21.21875 L 9.71875 -21.21875 Z M 9.71875 -33.429688 "/></g></g></g><g fill="#32620e" fill-opacity="1"><g transform="translate(107.553552, 192.172137)"><g><path d="M 11.449219 0.558594 C 13.992188 0.558594 16.230469 0.101562 18.0625 -1.070312 C 19.183594 -1.78125 20.199219 -2.796875 21.011719 -4.171875 L 21.011719 0 L 26.609375 0 L 26.609375 -15.722656 C 26.609375 -18.621094 26.609375 -23.097656 23.507812 -26 C 21.421875 -27.933594 18.316406 -28.898438 15.058594 -28.898438 C 9.515625 -28.898438 4.273438 -25.796875 3.308594 -19.539062 L 8.851562 -19.539062 C 9.464844 -22.488281 11.957031 -24.320312 15.007812 -24.320312 C 16.890625 -24.320312 18.417969 -23.710938 19.488281 -22.640625 C 20.503906 -21.574219 21.011719 -20.097656 21.0625 -18.113281 L 11.804688 -16.332031 C 9.160156 -15.824219 6.917969 -15.058594 5.242188 -13.839844 C 3.308594 -12.414062 2.1875 -10.378906 2.1875 -7.683594 C 2.1875 -2.492188 5.953125 0.558594 11.449219 0.558594 Z M 12.566406 -4.070312 C 9.71875 -4.070312 7.785156 -5.445312 7.785156 -7.835938 C 7.785156 -8.902344 8.191406 -9.769531 8.851562 -10.429688 C 9.769531 -11.296875 11.09375 -11.855469 13.128906 -12.261719 L 21.113281 -13.839844 C 21.113281 -9.617188 20.148438 -6.765625 16.636719 -4.984375 C 15.417969 -4.375 14.09375 -4.070312 12.566406 -4.070312 Z M 12.566406 -4.070312 "/></g></g></g><g fill="#32620e" fill-opacity="1"><g transform="translate(137.262298, 192.172137)"><g><path d="M 8.953125 0 L 8.953125 -13.890625 C 8.953125 -18.417969 9.667969 -20.808594 11.09375 -22.386719 C 12.007812 -23.507812 13.433594 -24.167969 15.058594 -24.167969 C 18.265625 -24.167969 20.25 -21.878906 20.25 -17.605469 L 20.25 0 L 25.796875 0 L 25.796875 -13.890625 C 25.796875 -17.960938 26.304688 -20.707031 27.984375 -22.539062 C 28.898438 -23.507812 30.222656 -24.167969 32.003906 -24.167969 C 35.207031 -24.167969 37.089844 -21.980469 37.089844 -17.605469 L 37.089844 0 L 42.6875 0 L 42.6875 -18.519531 C 42.6875 -24.980469 39.6875 -28.898438 33.277344 -28.898438 C 29.714844 -28.898438 26.609375 -27.628906 24.675781 -24.015625 C 23.761719 -27.273438 20.707031 -28.898438 16.992188 -28.898438 C 14.042969 -28.898438 11.5 -27.730469 8.953125 -24.371094 L 8.953125 -28.339844 L 3.359375 -28.339844 L 3.359375 0 Z M 8.953125 0 "/></g></g></g><g fill="#32620e" fill-opacity="1"><g transform="translate(183.097187, 192.172137)"><g><path d="M 13.074219 0.558594 C 16.382812 0.558594 18.722656 -0.8125 21.167969 -4.019531 L 21.167969 0 L 26.761719 0 L 26.761719 -28.339844 L 21.167969 -28.339844 L 21.167969 -15.058594 C 21.167969 -10.328125 20.554688 -7.734375 19.027344 -6.105469 C 17.910156 -4.832031 16.382812 -4.171875 14.296875 -4.171875 C 12.515625 -4.171875 11.195312 -4.679688 10.328125 -5.597656 C 9.3125 -6.765625 8.851562 -8.648438 8.851562 -11.601562 L 8.851562 -28.339844 L 3.257812 -28.339844 L 3.257812 -11.652344 C 3.257812 -7.988281 3.5625 -5.851562 4.476562 -4.070312 C 6.054688 -1.019531 8.902344 0.558594 13.074219 0.558594 Z M 13.074219 0.558594 "/></g></g></g><g fill="#32620e" fill-opacity="1"><g transform="translate(213.212897, 192.172137)"><g><path d="M 13.28125 0 L 13.28125 -4.730469 L 11.703125 -4.730469 C 9.3125 -4.730469 8.851562 -5.800781 8.851562 -8.039062 L 8.851562 -38.820312 L 3.257812 -38.820312 L 3.257812 -6.664062 C 3.257812 -1.628906 5.699219 0 9.921875 0 Z M 13.28125 0 "/></g></g></g><g fill="#32620e" fill-opacity="1"><g transform="translate(227.914652, 192.172137)"><g><path d="M 13.28125 0 L 13.28125 -4.730469 L 11.703125 -4.730469 C 9.3125 -4.730469 8.851562 -5.800781 8.851562 -8.039062 L 8.851562 -38.820312 L 3.257812 -38.820312 L 3.257812 -6.664062 C 3.257812 -1.628906 5.699219 0 9.921875 0 Z M 13.28125 0 "/></g></g></g><g fill="#32620e" fill-opacity="1"><g transform="translate(242.616406, 192.172137)"><g><path d="M 11.449219 0.558594 C 13.992188 0.558594 16.230469 0.101562 18.0625 -1.070312 C 19.183594 -1.78125 20.199219 -2.796875 21.011719 -4.171875 L 21.011719 0 L 26.609375 0 L 26.609375 -15.722656 C 26.609375 -18.621094 26.609375 -23.097656 23.507812 -26 C 21.421875 -27.933594 18.316406 -28.898438 15.058594 -28.898438 C 9.515625 -28.898438 4.273438 -25.796875 3.308594 -19.539062 L 8.851562 -19.539062 C 9.464844 -22.488281 11.957031 -24.320312 15.007812 -24.320312 C 16.890625 -24.320312 18.417969 -23.710938 19.488281 -22.640625 C 20.503906 -21.574219 21.011719 -20.097656 21.0625 -18.113281 L 11.804688 -16.332031 C 9.160156 -15.824219 6.917969 -15.058594 5.242188 -13.839844 C 3.308594 -12.414062 2.1875 -10.378906 2.1875 -7.683594 C 2.1875 -2.492188 5.953125 0.558594 11.449219 0.558594 Z M 12.566406 -4.070312 C 9.71875 -4.070312 7.785156 -5.445312 7.785156 -7.835938 C 7.785156 -8.902344 8.191406 -9.769531 8.851562 -10.429688 C 9.769531 -11.296875 11.09375 -11.855469 13.128906 -12.261719 L 21.113281 -13.839844 C 21.113281 -9.617188 20.148438 -6.765625 16.636719 -4.984375 C 15.417969 -4.375 14.09375 -4.070312 12.566406 -4.070312 Z M 12.566406 -4.070312 "/></g></g></g><g fill="#32620e" fill-opacity="1"><g transform="translate(272.325152, 192.172137)"><g><path d="M 8.039062 10.480469 C 12.058594 10.480469 14.042969 9.109375 15.671875 4.476562 L 27.476562 -28.339844 L 21.421875 -28.339844 L 14.449219 -6.917969 L 6.867188 -28.339844 L 0.761719 -28.339844 L 11.5 -0.152344 L 10.378906 2.949219 C 9.414062 5.394531 8.496094 5.597656 6.460938 5.597656 L 3.5625 5.597656 L 3.5625 10.480469 Z M 8.039062 10.480469 "/></g></g></g><g fill="#32620e" fill-opacity="1"><g transform="translate(302.056566, 170.587138)"><g><path d="M 3.527344 -6.859375 L 3.527344 -13.175781 L 5.941406 -13.175781 L 5.941406 -13.734375 L 0.484375 -13.734375 L 0.484375 -13.175781 L 2.898438 -13.175781 L 2.898438 -6.859375 Z M 7.398438 -6.859375 L 7.398438 -13.085938 L 9.628906 -6.859375 L 10.402344 -6.859375 L 12.617188 -13.066406 L 12.617188 -6.859375 L 13.246094 -6.859375 L 13.246094 -13.734375 L 12.238281 -13.734375 L 10.007812 -7.488281 L 7.777344 -13.734375 L 6.785156 -13.734375 L 6.785156 -6.859375 Z M 7.398438 -6.859375 "/></g></g></g><g fill="#32620e" fill-opacity="1"><g transform="translate(83.189841, 227.801366)"><g><path d="M 8.476562 0 L 8.476562 -0.929688 L 2.21875 -0.929688 L 2.21875 -5.28125 L 7.710938 -5.28125 L 7.710938 -6.210938 L 2.21875 -6.210938 L 2.21875 -10.515625 L 8.476562 -10.515625 L 8.476562 -11.445312 L 1.183594 -11.445312 L 1.183594 0 Z M 8.476562 0 "/></g></g></g><g fill="#32620e" fill-opacity="1"><g transform="translate(92.324835, 227.801366)"><g><path d="M 2.039062 0 L 2.039062 -3.765625 C 2.039062 -5.160156 2.25 -6 2.65625 -6.585938 C 3.058594 -7.171875 3.644531 -7.515625 4.410156 -7.515625 C 5.609375 -7.515625 6.226562 -6.539062 6.226562 -5.113281 L 6.226562 0 L 7.199219 0 L 7.199219 -3.765625 C 7.199219 -5.160156 7.425781 -6 7.816406 -6.601562 C 8.234375 -7.246094 8.851562 -7.515625 9.570312 -7.515625 C 10.84375 -7.515625 11.355469 -6.496094 11.355469 -5.113281 L 11.355469 0 L 12.328125 0 L 12.328125 -5.355469 C 12.328125 -7.289062 11.460938 -8.386719 9.644531 -8.386719 C 8.519531 -8.386719 7.46875 -7.859375 6.945312 -6.660156 C 6.613281 -7.828125 5.65625 -8.386719 4.5 -8.386719 C 3.300781 -8.386719 2.429688 -7.753906 2.039062 -7.003906 L 2.039062 -8.234375 L 1.066406 -8.234375 L 1.066406 0 Z M 2.039062 0 "/></g></g></g><g fill="#32620e" fill-opacity="1"><g transform="translate(105.659822, 227.801366)"><g><path d="M 4.996094 0.148438 C 7.140625 0.148438 8.59375 -1.621094 8.59375 -4.109375 C 8.59375 -6.613281 7.140625 -8.386719 4.996094 -8.386719 C 3.796875 -8.386719 2.789062 -7.785156 2.054688 -6.703125 L 2.054688 -11.445312 L 1.078125 -11.445312 L 1.078125 0 L 2.054688 0 L 2.054688 -1.53125 C 2.773438 -0.480469 3.78125 0.148438 4.996094 0.148438 Z M 4.90625 -0.71875 C 3.238281 -0.71875 2.023438 -2.175781 2.023438 -4.109375 C 2.023438 -6.058594 3.238281 -7.515625 4.90625 -7.515625 C 6.585938 -7.515625 7.621094 -6.046875 7.621094 -4.109375 C 7.621094 -2.191406 6.585938 -0.71875 4.90625 -0.71875 Z M 4.90625 -0.71875 "/></g></g></g><g fill="#32620e" fill-opacity="1"><g transform="translate(115.004815, 227.801366)"><g><path d="M 4.574219 -8.386719 C 3.421875 -8.386719 2.578125 -7.921875 2.039062 -7.003906 L 2.039062 -8.234375 L 1.066406 -8.234375 L 1.066406 0 L 2.039062 0 L 2.039062 -4.019531 C 2.039062 -5.25 2.234375 -6.105469 2.714844 -6.703125 C 3.105469 -7.199219 3.691406 -7.425781 4.46875 -7.425781 L 4.84375 -7.425781 L 4.84375 -8.386719 Z M 4.574219 -8.386719 "/></g></g></g><g fill="#32620e" fill-opacity="1"><g transform="translate(120.17981, 227.801366)"><g><path d="M 3.523438 0.148438 C 4.183594 0.148438 4.800781 -0.03125 5.324219 -0.34375 C 5.804688 -0.628906 6.195312 -1.035156 6.464844 -1.546875 L 6.464844 0 L 7.441406 0 L 7.441406 -4.921875 C 7.441406 -6.046875 7.171875 -6.929688 6.601562 -7.53125 C 6.074219 -8.085938 5.296875 -8.386719 4.246094 -8.386719 C 2.65625 -8.386719 1.273438 -7.46875 1.019531 -5.835938 L 1.996094 -5.835938 C 2.191406 -6.855469 3.121094 -7.515625 4.230469 -7.515625 C 4.996094 -7.515625 5.550781 -7.320312 5.910156 -6.914062 C 6.269531 -6.511719 6.433594 -5.941406 6.464844 -5.203125 L 3.523438 -4.621094 C 2.953125 -4.5 2.191406 -4.320312 1.605469 -3.914062 C 1.09375 -3.554688 0.71875 -3.015625 0.71875 -2.191406 C 0.71875 -0.675781 1.90625 0.148438 3.523438 0.148438 Z M 3.449219 -0.71875 C 2.460938 -0.71875 1.695312 -1.246094 1.695312 -2.191406 C 1.695312 -2.640625 1.875 -2.96875 2.160156 -3.210938 C 2.519531 -3.511719 3.046875 -3.660156 3.539062 -3.765625 L 6.464844 -4.378906 C 6.464844 -2.863281 6.074219 -1.636719 4.859375 -1.050781 C 4.410156 -0.824219 3.945312 -0.71875 3.449219 -0.71875 Z M 3.449219 -0.71875 "/></g></g></g><g fill="#32620e" fill-opacity="1"><g transform="translate(128.594799, 227.801366)"><g><path d="M 4.648438 0.148438 C 6.464844 0.148438 7.875 -0.914062 8.21875 -2.59375 L 7.15625 -2.59375 C 6.914062 -1.484375 5.941406 -0.71875 4.648438 -0.71875 C 2.941406 -0.71875 1.695312 -2.144531 1.695312 -4.15625 C 1.695312 -6.105469 2.941406 -7.515625 4.648438 -7.515625 C 5.851562 -7.515625 6.808594 -6.855469 7.109375 -5.835938 L 8.160156 -5.835938 C 7.785156 -7.378906 6.433594 -8.386719 4.648438 -8.386719 C 2.355469 -8.386719 0.71875 -6.570312 0.71875 -4.15625 C 0.71875 -1.664062 2.355469 0.148438 4.648438 0.148438 Z M 4.648438 0.148438 "/></g></g></g><g fill="#32620e" fill-opacity="1"><g transform="translate(137.459793, 227.801366)"><g><path d="M 4.648438 0.148438 C 6.628906 0.148438 7.890625 -1.066406 8.371094 -2.59375 L 7.335938 -2.59375 C 6.960938 -1.558594 6.015625 -0.71875 4.648438 -0.71875 C 3.390625 -0.71875 2.371094 -1.515625 1.921875 -2.804688 C 1.785156 -3.179688 1.710938 -3.523438 1.679688 -3.945312 L 8.550781 -3.945312 C 8.550781 -4.109375 8.550781 -4.289062 8.535156 -4.453125 C 8.339844 -6.75 6.898438 -8.386719 4.636719 -8.386719 C 2.203125 -8.386719 0.71875 -6.390625 0.71875 -4.109375 C 0.71875 -1.679688 2.355469 0.148438 4.648438 0.148438 Z M 1.738281 -4.738281 C 1.785156 -5.070312 1.890625 -5.488281 2.039062 -5.820312 C 2.503906 -6.886719 3.449219 -7.515625 4.648438 -7.515625 C 5.835938 -7.515625 6.855469 -6.871094 7.335938 -5.761719 C 7.484375 -5.414062 7.546875 -5.113281 7.605469 -4.738281 Z M 1.738281 -4.738281 "/></g></g></g><g fill="#32620e" fill-opacity="1"><g transform="translate(146.714778, 227.801366)"><g/></g></g><g fill="#32620e" fill-opacity="1"><g transform="translate(150.914771, 227.801366)"><g><path d="M 4.621094 3.359375 C 6.871094 3.359375 8.265625 2.414062 8.265625 -0.105469 L 8.265625 -8.234375 L 7.289062 -8.234375 L 7.289062 -6.703125 C 6.570312 -7.753906 5.566406 -8.386719 4.351562 -8.386719 C 2.203125 -8.386719 0.75 -6.613281 0.75 -4.140625 C 0.75 -1.636719 2.203125 0.148438 4.351562 0.148438 C 5.550781 0.148438 6.554688 -0.449219 7.289062 -1.53125 L 7.289062 0.0585938 C 7.289062 1.621094 6.511719 2.488281 4.605469 2.488281 C 3.046875 2.488281 2.296875 1.933594 1.964844 0.839844 L 0.988281 0.839844 C 1.46875 2.65625 2.804688 3.359375 4.621094 3.359375 Z M 4.441406 -0.71875 C 2.761719 -0.71875 1.726562 -2.191406 1.726562 -4.109375 C 1.726562 -6.046875 2.730469 -7.515625 4.441406 -7.515625 C 6.105469 -7.515625 7.320312 -6.058594 7.320312 -4.109375 C 7.320312 -2.175781 6.105469 -0.71875 4.441406 -0.71875 Z M 4.441406 -0.71875 "/></g></g></g><g fill="#32620e" fill-opacity="1"><g transform="translate(160.244761, 227.801366)"><g><path d="M 4.574219 -8.386719 C 3.421875 -8.386719 2.578125 -7.921875 2.039062 -7.003906 L 2.039062 -8.234375 L 1.066406 -8.234375 L 1.066406 0 L 2.039062 0 L 2.039062 -4.019531 C 2.039062 -5.25 2.234375 -6.105469 2.714844 -6.703125 C 3.105469 -7.199219 3.691406 -7.425781 4.46875 -7.425781 L 4.84375 -7.425781 L 4.84375 -8.386719 Z M 4.574219 -8.386719 "/></g></g></g><g fill="#32620e" fill-opacity="1"><g transform="translate(165.419756, 227.801366)"><g><path d="M 4.648438 0.148438 C 6.628906 0.148438 7.890625 -1.066406 8.371094 -2.59375 L 7.335938 -2.59375 C 6.960938 -1.558594 6.015625 -0.71875 4.648438 -0.71875 C 3.390625 -0.71875 2.371094 -1.515625 1.921875 -2.804688 C 1.785156 -3.179688 1.710938 -3.523438 1.679688 -3.945312 L 8.550781 -3.945312 C 8.550781 -4.109375 8.550781 -4.289062 8.535156 -4.453125 C 8.339844 -6.75 6.898438 -8.386719 4.636719 -8.386719 C 2.203125 -8.386719 0.71875 -6.390625 0.71875 -4.109375 C 0.71875 -1.679688 2.355469 0.148438 4.648438 0.148438 Z M 1.738281 -4.738281 C 1.785156 -5.070312 1.890625 -5.488281 2.039062 -5.820312 C 2.503906 -6.886719 3.449219 -7.515625 4.648438 -7.515625 C 5.835938 -7.515625 6.855469 -6.871094 7.335938 -5.761719 C 7.484375 -5.414062 7.546875 -5.113281 7.605469 -4.738281 Z M 1.738281 -4.738281 "/></g></g></g><g fill="#32620e" fill-opacity="1"><g transform="translate(174.674741, 227.801366)"><g><path d="M 4.648438 0.148438 C 6.628906 0.148438 7.890625 -1.066406 8.371094 -2.59375 L 7.335938 -2.59375 C 6.960938 -1.558594 6.015625 -0.71875 4.648438 -0.71875 C 3.390625 -0.71875 2.371094 -1.515625 1.921875 -2.804688 C 1.785156 -3.179688 1.710938 -3.523438 1.679688 -3.945312 L 8.550781 -3.945312 C 8.550781 -4.109375 8.550781 -4.289062 8.535156 -4.453125 C 8.339844 -6.75 6.898438 -8.386719 4.636719 -8.386719 C 2.203125 -8.386719 0.71875 -6.390625 0.71875 -4.109375 C 0.71875 -1.679688 2.355469 0.148438 4.648438 0.148438 Z M 1.738281 -4.738281 C 1.785156 -5.070312 1.890625 -5.488281 2.039062 -5.820312 C 2.503906 -6.886719 3.449219 -7.515625 4.648438 -7.515625 C 5.835938 -7.515625 6.855469 -6.871094 7.335938 -5.761719 C 7.484375 -5.414062 7.546875 -5.113281 7.605469 -4.738281 Z M 1.738281 -4.738281 "/></g></g></g><g fill="#32620e" fill-opacity="1"><g transform="translate(183.929726, 227.801366)"><g><path d="M 2.039062 0 L 2.039062 -3.253906 C 2.039062 -5.144531 2.371094 -6.195312 2.953125 -6.839844 C 3.359375 -7.273438 3.898438 -7.515625 4.53125 -7.515625 C 5.203125 -7.515625 5.714844 -7.261719 6.03125 -6.75 C 6.269531 -6.359375 6.390625 -5.804688 6.390625 -5.101562 L 6.390625 0 L 7.363281 0 L 7.363281 -5.054688 C 7.363281 -5.609375 7.363281 -6.421875 6.960938 -7.125 C 6.523438 -7.890625 5.761719 -8.386719 4.738281 -8.386719 C 3.585938 -8.386719 2.714844 -7.921875 2.039062 -6.855469 L 2.039062 -8.234375 L 1.066406 -8.234375 L 1.066406 0 Z M 2.039062 0 "/></g></g></g><g fill="#32620e" fill-opacity="1"><g transform="translate(192.299717, 227.801366)"><g><path d="M 4.648438 0.148438 C 6.628906 0.148438 7.890625 -1.066406 8.371094 -2.59375 L 7.335938 -2.59375 C 6.960938 -1.558594 6.015625 -0.71875 4.648438 -0.71875 C 3.390625 -0.71875 2.371094 -1.515625 1.921875 -2.804688 C 1.785156 -3.179688 1.710938 -3.523438 1.679688 -3.945312 L 8.550781 -3.945312 C 8.550781 -4.109375 8.550781 -4.289062 8.535156 -4.453125 C 8.339844 -6.75 6.898438 -8.386719 4.636719 -8.386719 C 2.203125 -8.386719 0.71875 -6.390625 0.71875 -4.109375 C 0.71875 -1.679688 2.355469 0.148438 4.648438 0.148438 Z M 1.738281 -4.738281 C 1.785156 -5.070312 1.890625 -5.488281 2.039062 -5.820312 C 2.503906 -6.886719 3.449219 -7.515625 4.648438 -7.515625 C 5.835938 -7.515625 6.855469 -6.871094 7.335938 -5.761719 C 7.484375 -5.414062 7.546875 -5.113281 7.605469 -4.738281 Z M 1.738281 -4.738281 "/></g></g></g><g fill="#32620e" fill-opacity="1"><g transform="translate(201.554702, 227.801366)"><g><path d="M 4.574219 -8.386719 C 3.421875 -8.386719 2.578125 -7.921875 2.039062 -7.003906 L 2.039062 -8.234375 L 1.066406 -8.234375 L 1.066406 0 L 2.039062 0 L 2.039062 -4.019531 C 2.039062 -5.25 2.234375 -6.105469 2.714844 -6.703125 C 3.105469 -7.199219 3.691406 -7.425781 4.46875 -7.425781 L 4.84375 -7.425781 L 4.84375 -8.386719 Z M 4.574219 -8.386719 "/></g></g></g><g fill="#32620e" fill-opacity="1"><g transform="translate(206.729697, 227.801366)"><g><path d="M 2.355469 3.210938 C 2.863281 3.210938 3.601562 3.089844 4.066406 1.84375 L 7.785156 -8.234375 L 6.703125 -8.234375 L 4.214844 -1.320312 L 1.378906 -8.234375 L 0.300781 -8.234375 L 3.71875 -0.0742188 L 3.121094 1.515625 C 2.863281 2.175781 2.59375 2.324219 1.90625 2.324219 L 1.003906 2.324219 L 1.003906 3.210938 Z M 2.355469 3.210938 "/></g></g></g><g fill="#32620e" fill-opacity="1"><g transform="translate(214.859694, 227.801366)"><g><path d="M 1.394531 2.566406 C 2.835938 2.339844 3.34375 1.246094 3.34375 0.238281 C 3.34375 -0.734375 2.894531 -1.351562 2.175781 -1.351562 C 1.679688 -1.351562 1.351562 -1.035156 1.351562 -0.585938 C 1.351562 -0.136719 1.664062 0.148438 2.144531 0.148438 C 2.386719 0.148438 2.566406 0.0585938 2.730469 -0.121094 C 2.761719 0.105469 2.761719 0.210938 2.761719 0.316406 C 2.761719 1.214844 2.308594 1.859375 1.394531 2.023438 Z M 1.394531 2.566406 "/></g></g></g><g fill="#32620e" fill-opacity="1"><g transform="translate(219.554689, 227.801366)"><g/></g></g><g fill="#32620e" fill-opacity="1"><g transform="translate(223.754682, 227.801366)"><g><path d="M 3.675781 0 L 6.046875 -6.945312 L 8.371094 0 L 9.285156 0 L 11.671875 -8.234375 L 10.648438 -8.234375 L 8.789062 -1.46875 L 6.480469 -8.234375 L 5.578125 -8.234375 L 3.269531 -1.484375 L 1.425781 -8.234375 L 0.40625 -8.234375 L 2.773438 0 Z M 3.675781 0 "/></g></g></g><g fill="#32620e" fill-opacity="1"><g transform="translate(235.829675, 227.801366)"><g><path d="M 1.574219 -10.140625 C 1.980469 -10.140625 2.308594 -10.46875 2.308594 -10.875 C 2.308594 -11.265625 1.980469 -11.59375 1.574219 -11.59375 C 1.171875 -11.59375 0.839844 -11.265625 0.839844 -10.875 C 0.839844 -10.46875 1.171875 -10.140625 1.574219 -10.140625 Z M 2.054688 0 L 2.054688 -8.234375 L 1.078125 -8.234375 L 1.078125 0 Z M 2.054688 0 "/></g></g></g><g fill="#32620e" fill-opacity="1"><g transform="translate(238.964669, 227.801366)"><g><path d="M 4.636719 0 L 4.636719 -0.871094 L 3.808594 -0.871094 C 2.804688 -0.871094 2.714844 -1.320312 2.714844 -2.265625 L 2.714844 -7.363281 L 4.648438 -7.363281 L 4.648438 -8.234375 L 2.714844 -8.234375 L 2.714844 -11.445312 L 1.738281 -11.445312 L 1.738281 -8.234375 L 0.40625 -8.234375 L 0.40625 -7.363281 L 1.738281 -7.363281 L 1.738281 -2.070312 C 1.738281 -0.421875 2.339844 0 3.585938 0 Z M 4.636719 0 "/></g></g></g><g fill="#32620e" fill-opacity="1"><g transform="translate(244.154667, 227.801366)"><g><path d="M 2.054688 0 L 2.054688 -3.253906 C 2.054688 -5.144531 2.386719 -6.195312 2.96875 -6.839844 C 3.375 -7.273438 3.914062 -7.515625 4.546875 -7.515625 C 5.21875 -7.515625 5.730469 -7.261719 6.046875 -6.75 C 6.285156 -6.359375 6.40625 -5.804688 6.40625 -5.101562 L 6.40625 0 L 7.378906 0 L 7.378906 -5.054688 C 7.378906 -5.609375 7.378906 -6.421875 6.976562 -7.125 C 6.539062 -7.890625 5.773438 -8.386719 4.753906 -8.386719 C 3.601562 -8.386719 2.730469 -7.921875 2.054688 -6.855469 L 2.054688 -11.445312 L 1.078125 -11.445312 L 1.078125 0 Z M 2.054688 0 "/></g></g></g><g fill="#32620e" fill-opacity="1"><g transform="translate(252.539661, 227.801366)"><g/></g></g><g fill="#32620e" fill-opacity="1"><g transform="translate(256.739654, 227.801366)"><g><path d="M 4.648438 0.148438 C 6.628906 0.148438 7.890625 -1.066406 8.371094 -2.59375 L 7.335938 -2.59375 C 6.960938 -1.558594 6.015625 -0.71875 4.648438 -0.71875 C 3.390625 -0.71875 2.371094 -1.515625 1.921875 -2.804688 C 1.785156 -3.179688 1.710938 -3.523438 1.679688 -3.945312 L 8.550781 -3.945312 C 8.550781 -4.109375 8.550781 -4.289062 8.535156 -4.453125 C 8.339844 -6.75 6.898438 -8.386719 4.636719 -8.386719 C 2.203125 -8.386719 0.71875 -6.390625 0.71875 -4.109375 C 0.71875 -1.679688 2.355469 0.148438 4.648438 0.148438 Z M 1.738281 -4.738281 C 1.785156 -5.070312 1.890625 -5.488281 2.039062 -5.820312 C 2.503906 -6.886719 3.449219 -7.515625 4.648438 -7.515625 C 5.835938 -7.515625 6.855469 -6.871094 7.335938 -5.761719 C 7.484375 -5.414062 7.546875 -5.113281 7.605469 -4.738281 Z M 1.738281 -4.738281 "/></g></g></g><g fill="#32620e" fill-opacity="1"><g transform="translate(265.994639, 227.801366)"><g><path d="M 3.523438 0.148438 C 4.183594 0.148438 4.800781 -0.03125 5.324219 -0.34375 C 5.804688 -0.628906 6.195312 -1.035156 6.464844 -1.546875 L 6.464844 0 L 7.441406 0 L 7.441406 -4.921875 C 7.441406 -6.046875 7.171875 -6.929688 6.601562 -7.53125 C 6.074219 -8.085938 5.296875 -8.386719 4.246094 -8.386719 C 2.65625 -8.386719 1.273438 -7.46875 1.019531 -5.835938 L 1.996094 -5.835938 C 2.191406 -6.855469 3.121094 -7.515625 4.230469 -7.515625 C 4.996094 -7.515625 5.550781 -7.320312 5.910156 -6.914062 C 6.269531 -6.511719 6.433594 -5.941406 6.464844 -5.203125 L 3.523438 -4.621094 C 2.953125 -4.5 2.191406 -4.320312 1.605469 -3.914062 C 1.09375 -3.554688 0.71875 -3.015625 0.71875 -2.191406 C 0.71875 -0.675781 1.90625 0.148438 3.523438 0.148438 Z M 3.449219 -0.71875 C 2.460938 -0.71875 1.695312 -1.246094 1.695312 -2.191406 C 1.695312 -2.640625 1.875 -2.96875 2.160156 -3.210938 C 2.519531 -3.511719 3.046875 -3.660156 3.539062 -3.765625 L 6.464844 -4.378906 C 6.464844 -2.863281 6.074219 -1.636719 4.859375 -1.050781 C 4.410156 -0.824219 3.945312 -0.71875 3.449219 -0.71875 Z M 3.449219 -0.71875 "/></g></g></g><g fill="#32620e" fill-opacity="1"><g transform="translate(274.409628, 227.801366)"><g><path d="M 4.273438 0.148438 C 6.285156 0.148438 7.394531 -0.824219 7.394531 -2.296875 C 7.394531 -4.09375 5.761719 -4.425781 4.289062 -4.726562 C 3.074219 -4.964844 1.964844 -5.191406 1.964844 -6.195312 C 1.964844 -7.019531 2.699219 -7.515625 3.914062 -7.515625 C 5.144531 -7.515625 5.96875 -6.929688 6.148438 -5.835938 L 7.125 -5.835938 C 6.871094 -7.378906 5.699219 -8.386719 3.914062 -8.386719 C 2.25 -8.386719 0.988281 -7.574219 0.988281 -6.089844 C 0.988281 -4.484375 2.488281 -4.171875 3.914062 -3.886719 C 5.203125 -3.628906 6.421875 -3.375 6.421875 -2.203125 C 6.421875 -1.246094 5.609375 -0.71875 4.320312 -0.71875 C 2.683594 -0.71875 1.828125 -1.441406 1.664062 -2.59375 L 0.675781 -2.59375 C 0.886719 -0.886719 2.191406 0.148438 4.273438 0.148438 Z M 4.273438 0.148438 "/></g></g></g><g fill="#32620e" fill-opacity="1"><g transform="translate(282.554605, 227.801366)"><g><path d="M 4.648438 0.148438 C 6.628906 0.148438 7.890625 -1.066406 8.371094 -2.59375 L 7.335938 -2.59375 C 6.960938 -1.558594 6.015625 -0.71875 4.648438 -0.71875 C 3.390625 -0.71875 2.371094 -1.515625 1.921875 -2.804688 C 1.785156 -3.179688 1.710938 -3.523438 1.679688 -3.945312 L 8.550781 -3.945312 C 8.550781 -4.109375 8.550781 -4.289062 8.535156 -4.453125 C 8.339844 -6.75 6.898438 -8.386719 4.636719 -8.386719 C 2.203125 -8.386719 0.71875 -6.390625 0.71875 -4.109375 C 0.71875 -1.679688 2.355469 0.148438 4.648438 0.148438 Z M 1.738281 -4.738281 C 1.785156 -5.070312 1.890625 -5.488281 2.039062 -5.820312 C 2.503906 -6.886719 3.449219 -7.515625 4.648438 -7.515625 C 5.835938 -7.515625 6.855469 -6.871094 7.335938 -5.761719 C 7.484375 -5.414062 7.546875 -5.113281 7.605469 -4.738281 Z M 1.738281 -4.738281 "/></g></g></g></svg>